<svg xmlns="http://www.w3.org/2000/svg" width="800" height="500" viewBox="0 0 800 500" preserveAspectRatio="xMidYMid slice">
  
  <rect width="800" height="500" fill="#0c1018"></rect>

  
  <rect width="800" height="44" fill="#070a12"></rect>
  <circle cx="28" cy="22" r="7" fill="#ff5f57"></circle>
  <circle cx="54" cy="22" r="7" fill="#ffbd2e"></circle>
  <circle cx="80" cy="22" r="7" fill="#28c940"></circle>
  <rect x="310" y="11" width="220" height="22" rx="3" fill="#10162a"></rect>

  
  <rect x="0" y="44" width="50" height="356" fill="#080c14"></rect>

  
  <rect x="25" y="78" width="16" height="6" fill="#2a3146"></rect>
  <rect x="25" y="112" width="16" height="6" fill="#2a3146"></rect>
  <rect x="25" y="146" width="16" height="6" fill="#2a3146"></rect>
  <rect x="25" y="180" width="16" height="6" fill="#1a2030"></rect>
  <rect x="25" y="214" width="16" height="6" fill="#2a3146"></rect>
  <rect x="25" y="248" width="16" height="6" fill="#2a3146"></rect>
  <rect x="25" y="282" width="16" height="6" fill="#2a3146"></rect>
  <rect x="25" y="316" width="16" height="6" fill="#1a2030"></rect>
  <rect x="25" y="350" width="16" height="6" fill="#2a3146"></rect>

  
  
  <rect x="70" y="74" width="86" height="20" fill="#c084fc"></rect>
  <rect x="166" y="74" width="138" height="20" fill="#60a5fa"></rect>
  <rect x="314" y="74" width="74" height="20" fill="#94a3b8"></rect>
  <rect x="398" y="74" width="184" height="20" fill="#fde047"></rect>

  
  <rect x="110" y="108" width="100" height="20" fill="#fbbf24"></rect>
  <rect x="220" y="108" width="170" height="20" fill="#94a3b8"></rect>
  <rect x="400" y="108" width="90" height="20" fill="#60a5fa"></rect>

  
  <rect x="110" y="142" width="70" height="20" fill="#c084fc"></rect>
  <rect x="190" y="142" width="240" height="20" fill="#fde047"></rect>

  

  
  <rect x="70" y="210" width="118" height="20" fill="#94a3b8"></rect>
  <rect x="198" y="210" width="90" height="20" fill="#60a5fa"></rect>
  <rect x="298" y="210" width="50" height="20" fill="#fbbf24"></rect>

  
  <rect x="110" y="244" width="140" height="20" fill="#f87171"></rect>
  <rect x="260" y="244" width="200" height="20" fill="#94a3b8"></rect>

  
  <rect x="150" y="278" width="90" height="20" fill="#c084fc"></rect>
  <rect x="250" y="278" width="280" height="20" fill="#fde047"></rect>

  

  
  <rect x="70" y="346" width="70" height="20" fill="#c084fc"></rect>
  <rect x="150" y="346" width="220" height="20" fill="#fbbf24"></rect>
  <rect x="380" y="346" width="60" height="20" fill="#94a3b8"></rect>
  <rect x="450" y="346" width="130" height="20" fill="#60a5fa"></rect>

  
  <rect x="0" y="398" width="800" height="2" fill="#10162a"></rect>

  
  <rect x="0" y="400" width="800" height="100" fill="#060912"></rect>

  
  <rect x="70" y="416" width="22" height="14" fill="#34d399"></rect>
  <rect x="100" y="416" width="160" height="14" fill="#cbd5e1"></rect>
  <rect x="268" y="416" width="80" height="14" fill="#94a3b8"></rect>

  
  <rect x="70" y="440" width="80" height="14" fill="#60a5fa"></rect>
  <rect x="160" y="440" width="180" height="14" fill="#94a3b8"></rect>
  <rect x="350" y="440" width="60" height="14" fill="#34d399"></rect>

  
  <rect x="70" y="464" width="14" height="14" fill="#60a5fa"></rect>
</svg>